<?xml version="1.0" encoding="UTF-8" standalone="no"?>
<!DOCTYPE svg PUBLIC "-//W3C//DTD SVG 1.1//EN" "http://www.w3.org/Graphics/SVG/1.1/DTD/svg11.dtd">
<svg xmlns="http://www.w3.org/2000/svg" version="1.1" viewBox="0.00 0.00 83.00 68.00">
<g stroke-width="2.00" fill="none" stroke-linecap="butt">
<path stroke="#73bde4" vector-effect="non-scaling-stroke" d="
  M 34.98 15.64
  L 19.46 30.88
  Q 18.52 31.79 19.45 32.73
  L 31.31 44.65
  A 0.92 0.92 0.0 0 0 32.61 44.65
  L 40.78 36.48
  A 0.74 0.74 0.0 0 0 40.78 35.44
  L 32.32 26.97
  A 1.36 1.36 0.0 0 1 32.36 25.01
  L 40.28 17.66"
/>
<path stroke="#4dc0ed" vector-effect="non-scaling-stroke" d="
  M 40.28 17.66
  L 49.08 26.10"
/>
<path stroke="#4dc0ed" vector-effect="non-scaling-stroke" d="
  M 51.87 43.21
  Q 50.41 44.04 48.09 46.34
  Q 44.23 50.15 42.18 52.98"
/>
<path stroke="#026fba" vector-effect="non-scaling-stroke" d="
  M 42.18 52.98
  Q 42.82 52.89 41.96 53.52"
/>
<path stroke="#bfe7f2" vector-effect="non-scaling-stroke" d="
  M 40.80 17.28
  L 40.28 17.66"
/>
<path stroke="#4e99c8" vector-effect="non-scaling-stroke" d="
  M 42.18 52.98
  L 50.61 44.67"
/>
<path stroke="#4e99c8" vector-effect="non-scaling-stroke" d="
  M 49.18 25.58
  L 40.80 17.28"
/>
<path stroke="#7495bf" vector-effect="non-scaling-stroke" d="
  M 40.80 17.28
  L 40.64 16.19"
/>
<path stroke="#7495bf" vector-effect="non-scaling-stroke" d="
  M 69.97 30.41
  L 67.30 33.52"
/>
</g>
<path fill="#0196df" d="
  M 34.98 15.64
  L 19.46 30.88
  Q 18.52 31.79 19.45 32.73
  L 31.31 44.65
  A 0.92 0.92 0.0 0 0 32.61 44.65
  L 40.78 36.48
  A 0.74 0.74 0.0 0 0 40.78 35.44
  L 32.32 26.97
  A 1.36 1.36 0.0 0 1 32.36 25.01
  L 40.28 17.66
  L 49.08 26.10
  Q 51.33 27.97 53.18 30.25
  Q 55.29 32.84 55.39 35.45
  Q 55.56 39.86 51.87 43.21
  Q 50.41 44.04 48.09 46.34
  Q 44.23 50.15 42.18 52.98
  Q 42.82 52.89 41.96 53.52
  Q 40.37 54.45 38.22 56.72
  C 33.80 61.37 27.89 59.16 23.88 55.35
  Q 14.37 46.29 7.43 38.38
  C 2.83 33.15 4.78 28.20 9.40 23.67
  Q 16.72 16.52 23.86 9.12
  Q 25.05 7.89 26.16 6.59
  A 2.12 2.11 43.3 0 1 29.28 6.50
  Q 32.19 9.50 35.47 12.11
  Q 36.14 12.64 36.36 13.54
  Q 36.80 15.31 34.98 15.64
  Z"
/>
<path fill="#024795" d="
  M 49.18 25.58
  L 40.80 17.28
  L 40.64 16.19
  L 46.98 9.93
  A 1.32 1.32 0.0 0 1 48.84 9.94
  L 55.87 17.07
  A 1.41 1.41 0.0 0 1 55.85 19.07
  L 49.18 25.58
  Z"
/>
<path fill="#e5e3e9" d="
  M 34.98 15.64
  L 34.73 20.45
  Q 34.70 21.01 35.14 20.66
  L 40.64 16.19
  L 40.80 17.28
  L 40.28 17.66
  L 32.36 25.01
  A 1.36 1.36 0.0 0 0 32.32 26.97
  L 40.78 35.44
  A 0.74 0.74 0.0 0 1 40.78 36.48
  L 32.61 44.65
  A 0.92 0.92 0.0 0 1 31.31 44.65
  L 19.45 32.73
  Q 18.52 31.79 19.46 30.88
  L 34.98 15.64
  Z"
/>
<path fill="#99eafb" d="
  M 40.80 17.28
  L 49.18 25.58
  Q 49.13 25.84 49.08 26.10
  L 40.28 17.66
  L 40.80 17.28
  Z"
/>
<path fill="#e5e3e9" d="
  M 69.97 30.41
  L 67.30 33.52
  Q 68.49 29.02 69.97 30.41
  Z"
/>
<path fill="#024795" d="
  M 69.97 30.41
  L 77.85 39.21
  A 1.51 1.50 46.9 0 1 77.79 41.28
  Q 68.70 50.27 60.31 58.52
  C 58.27 60.53 54.53 62.57 51.63 61.34
  Q 45.84 58.88 41.96 53.52
  Q 42.82 52.89 42.18 52.98
  L 50.61 44.67
  L 53.17 46.82
  A 0.95 0.94 42.2 0 0 54.45 46.76
  L 67.30 33.52
  L 69.97 30.41
  Z"
/>
<path fill="#99eafb" d="
  M 51.87 43.21
  Q 51.53 43.98 50.61 44.67
  L 42.18 52.98
  Q 44.23 50.15 48.09 46.34
  Q 50.41 44.04 51.87 43.21
  Z"
/>
</svg>
