<?xml version="1.0" encoding="utf-8" ?>
<svg xmlns="http://www.w3.org/2000/svg" xmlns:xlink="http://www.w3.org/1999/xlink" width="1024" height="1024">
	<path fill="#0079FB" transform="scale(2 2)" d="M262.568 70.7806L257.75 70.5644C228.201 70.3178 202.207 91.0199 198.832 121.208C198.208 126.788 198.543 132.664 198.549 138.279L152.28 138.049C152.255 131.741 152.053 125.366 152.583 119.076C156.968 67.0138 198.226 28.5827 249.442 24.3471L261.144 24.243C287.65 24.6313 314.458 38.9715 332.543 57.6462C347.089 72.666 357.152 95.1057 359.372 116C360.149 123.315 359.824 130.98 359.706 138.334C358.21 138.596 356.461 138.416 354.924 138.416L313.778 138.284C313.814 119.647 314.067 108.932 301.756 92.7058C291.892 79.7036 278.506 72.9338 262.568 70.7806Z"/>
	<path fill="#0079FB" transform="scale(2 2)" d="M458.097 463.615C445.626 482.602 430.935 481.748 411.6 481.757L95.5612 481.758C88.3358 481.756 81.502 482.07 74.506 479.873C57.1332 474.417 46.3399 455.643 47.6441 437.957C48.065 432.251 49.3915 426.583 50.3743 420.951L73.1306 288.833L92.1558 170.995C92.3965 169.402 92.4972 167.784 92.9858 166.24L133.866 166.252L136.203 166.063C136.846 166.785 136.484 171.416 136.485 172.565L136.458 193.129C136.452 196.445 135.997 200.464 136.705 203.68C140.288 219.966 164.494 217.95 168.416 201.955C169.284 198.416 168.754 193.767 168.758 190.11L168.812 166.255L344.113 166.332L344.019 195.446C344.02 198.308 343.665 202.584 345.165 205.121L345.319 205.375C350.443 214.168 363.213 218.687 371.33 211.089C377.564 205.254 376.322 198.399 376.325 190.625L376.411 166.173L419.149 166.255L444.835 323.787L461.616 420.331C464.907 437.152 467.456 448.352 458.097 463.615ZM291.065 214.802C280.245 217.428 276.795 224.233 276.784 234.572L276.797 262.052C276.805 265.913 276.6 269.923 277.23 273.74C280.985 296.479 306.91 314.648 329.61 308.008C334.811 306.487 339.667 303.819 344.528 301.465L364.071 292.112C369.765 289.367 375.393 286.709 377.603 280.279C381.686 268.394 371.813 255.768 358.985 258.067C353.168 259.109 347.293 262.823 341.996 265.383L329.637 271.019C322.97 273.973 316.577 276.475 312.199 268.5L312.041 268.233C310.788 266.053 311.201 262.227 311.206 259.75L311.275 240.836C311.294 236.953 311.767 232.694 311.258 228.864C309.925 218.843 300.311 213.889 291.065 214.802ZM215.082 215.31C201.906 218.154 201.239 227.257 201.257 238.714L201.281 257.702C201.285 264.384 201.177 272.611 192.869 274.579C189.923 275.277 186.507 273.213 183.909 271.985L167.901 264.244C160.171 260.455 151.577 255.254 143.002 259.633C131.414 265.551 130.204 281.691 141.375 288.452L152.087 293.668L167.779 301.544C172.669 304.004 177.763 306.648 183.072 308.066C205.932 314.169 231.649 296.614 234.683 273.261C235.055 270.396 234.955 267.405 234.966 264.518L235.018 237.959C235.135 223.162 231.396 213.902 215.082 215.31ZM319.395 339.856C304.401 340.857 292.862 347.214 282.886 358.619L256.623 391.279C245.663 379.239 235.024 362.425 223.317 352.004C212.089 342.009 194.695 337.238 179.969 341.201C171.318 343.529 163.052 348.297 154.963 352.112L145.707 356.421C143.193 357.601 140.471 358.824 138.389 360.703C127.507 370.52 135.577 389.717 149.645 390.181C155.258 390.366 161.035 387.014 166.008 384.711L179.387 378.385C185.161 375.582 189.794 372.951 196.322 374.642C201.841 376.926 205.261 381.612 208.915 386.125L223.583 405.029C232.55 416.688 240.379 429.924 256.839 429.457C272.637 429.009 277.907 419.471 286.741 408.25L303.549 386.969C309.651 379.215 315.317 370.789 326.588 375.494C337.181 379.916 356.799 393.426 367.125 389.237C378.682 384.548 383.318 367.948 372.238 360.025C366.189 355.699 358.594 352.927 351.877 349.742C341.175 344.668 331.684 339.038 319.395 339.856Z"/>
</svg>
